<?xml version="1.0" encoding="UTF-8"?>
<svg id="Layer_1" data-name="Layer 1" xmlns="http://www.w3.org/2000/svg" viewBox="0 0 2548.5 579.76">
  <defs>
    <style>
      .cls-1 {
        fill: #fff;
      }

      .cls-2 {
        fill: #88c540;
      }
    </style>
  </defs>
  <polygon class="cls-1" points="394.41 577.01 336.39 577.21 240.9 433.41 240.28 577.18 182.44 577.14 182.47 340.66 240.13 340.62 335.75 485.59 336.09 340.64 394.41 340.64 394.41 577.01"/>
  <polygon class="cls-1" points="1860 577.04 1802.18 577.14 1706.57 432.85 1706.17 577.15 1648.53 577.16 1648.49 340.75 1706.01 340.52 1801.86 485.82 1802.45 340.61 1859.99 340.65 1860 577.04"/>
  <path class="cls-1" d="M1432.25,576.95l-65.16.27-48.27-88.1-14.46-.97-.05,89.05-57.52-.05v-236.54s102.89.13,102.89.13c14.85.02,29.35,4.29,42.49,10.08,22.9,11.5,35.92,32.55,37.95,58.04,2.8,35.1-17.74,65.53-52.36,74.56l54.49,93.54ZM1371.47,418.02c.8-15.78-10.06-28.76-25.2-28.97l-41.93-.58v58.93s43.25-.89,43.25-.89c14.66-.3,24.43-12.94,23.88-28.48Z"/>
  <path class="cls-1" d="M820.19,576.84l-64.88.42-48.52-88.1-14.12-1-.06,89.03-57.93-.05-.02-236.55,103.56.21c21.13.04,40.66,7.28,56.9,19.84,16.41,14.51,23.6,34.56,23.23,56.51-.53,32-20.96,57.87-52.38,66.29l54.21,93.4ZM759.27,417.99c1.49-15.72-9.67-28.7-24.76-28.92l-41.87-.59v58.91s42.88-.87,42.88-.87c14.75-.3,24.86-12.75,23.75-28.53Z"/>
  <path class="cls-1" d="M1147.47,491.15l-53.11,1.15v84.78s-57.92-.03-57.92-.03v-236.48s103.05.47,103.05.47c22.88.11,43.28,8.99,59.37,24.63,21.76,26.6,24.78,65.03,5.16,93.92-12.54,18.46-33.62,29.21-56.56,31.54ZM1158.26,415.9c-.42-16.09-10.63-27.96-26.51-28.22l-37.39-.63v59.27s34.54,0,34.54,0c17.6,0,29.84-11.83,29.35-30.41Z"/>
  <polygon class="cls-1" points="135.45 479.29 58.28 479.26 58 530.92 145.42 530.9 145.37 577.15 .06 577.15 0 340.62 145.36 340.6 145.41 387.03 58.11 387.03 58.01 434.58 135.05 434.62 135.45 479.29"/>
  <polygon class="cls-1" points="2036.95 479.25 1959.61 479.3 1959.54 530.79 2046.83 530.97 2046.74 577.12 1901.71 577.17 1901.7 340.6 2046.76 340.62 2046.75 387.06 1959.7 387 1959.51 434.58 2036.79 434.62 2036.95 479.25"/>
  <polygon class="cls-1" points="989.36 479.13 912.04 479.39 912.03 530.92 999.4 530.91 999.32 577.15 854.48 577.16 854.49 340.62 999.47 340.62 999.33 387.02 912.03 387.04 912.04 434.49 989.22 434.67 989.36 479.13"/>
  <polygon class="cls-1" points="1601.21 479.13 1523.74 479.39 1523.73 530.92 1611.12 530.91 1611.04 577.15 1466.33 577.16 1466.34 340.63 1611.19 340.62 1611.06 387.02 1523.74 387.03 1523.74 434.49 1601.05 434.68 1601.21 479.13"/>
  <polygon class="cls-1" points="543.29 577.03 485.4 577.24 485.34 387.03 423.23 387 423.12 340.62 605.76 340.61 605.74 387.06 543.29 387 543.29 577.03"/>
  <path class="cls-1" d="M1443.56,296.84l-31.23.47-.86-31.74c-15.18,21.04-35.62,32.44-60.95,34.43-39.01,3.06-73.76-18.76-87.5-55.92-9.5-25.7-9.62-55.08.34-80.7,13.83-35.57,47.61-55.82,85.08-53.92,26.13,1.33,47.67,12.36,63.05,34.11l.81-31.27,31.24.07v184.47ZM1409.77,225.44c8.64-35.81-4.98-74.09-38.25-85.45-22.29-7.61-44.92-3.75-61.81,10.47-17.68,14.88-22.68,36.89-21.99,59.23,1.01,32.61,23,59.44,53.98,62.97,31.36,3.58,60.19-14.55,68.07-47.23Z"/>
  <path class="cls-1" d="M795.73,297.3l-.31-33.23c-15.31,23.11-38.91,35.68-66.8,36.2-35.83.67-66.92-19.38-80.78-52.64-10.68-25.62-11.43-54.11-2.54-80.44,12.53-37.11,46.53-59.18,85.39-57.8,26.75.95,48.73,12.44,64.55,34.4l.52-31.53,30.92.15v184.6s-30.96.29-30.96.29ZM794.12,221.31c2.16-11.34,1.94-23.64-.08-34.14-5.91-30.66-30.66-50.66-60.35-51.03-28.9-.36-54.2,18.6-60.64,48.49-2.76,12.8-2.73,27.26.13,39.97,6.83,30.44,32.62,49.61,62.53,48.52,28.64-1.05,52.55-21.11,58.41-51.81Z"/>
  <path class="cls-1" d="M123.73,291.12c-27.41,12.44-59.56,10.98-85.86-1.97-21.73-10.7-35.24-30.97-35.22-54.83l32.68-.05c2.14,15.05,9.28,28.1,22.99,34.15,14.49,6.39,30.8,6.6,46.08,1.88,22.55-6.97,33.63-32.84,21.69-53.68-6.19-10.8-18.68-16.47-30.36-20.06l-54.36-16.71c-23.45-7.21-36.64-28.07-37.52-51.9-1.02-27.42,13.16-51.12,39.28-61.48,24.81-9.84,53.5-10.13,78.25.53,22.08,9.51,36.43,29.51,38.15,52.63h-33.7c-2.04-11.25-8.25-20.81-18.38-26.66-16.98-9.8-39.22-10.41-56.5.15-17.87,10.93-21.37,37.93-6.58,52.95,8.16,8.29,20.28,11.98,31.17,15.54l51.99,16.98c23.03,7.52,34.87,29.56,34.53,53.55-.37,25.57-13.63,47.75-38.34,58.97Z"/>
  <polygon class="cls-1" points="1151.85 204.58 1238.73 296.78 1196.83 297.08 1125.13 216.48 1124.74 297.19 1093.96 297.03 1093.94 48.17 1124.81 47.81 1124.97 193.92 1195.56 112.68 1238.33 112.77 1151.85 204.58"/>
  <path class="cls-1" d="M1526.71,183.99l-.88,113.1h-30.53s0-184.69,0-184.69l30.41-.14.39,25.08c16.33-21.35,40.2-29.83,66.92-28.09,35.72,2.32,66.52,28.61,66.77,66.2l.82,121.36-30.38.35-.44-111.75c-.12-29.9-22.7-50.28-51.69-49.81-27.29.44-51.16,18.4-51.39,48.38Z"/>
  <path class="cls-1" d="M965.52,135.76c-29.99-1.72-55.2,17.99-55.4,48.16l-.75,113.19h-30.9s-.03-184.3-.03-184.3l30.69-.7.73,24.97c16.55-22.07,41.75-30.07,68.96-27.53,35.34,3.29,64.15,29.32,64.43,66.26l.91,121.28-30.49.03-.88-115.16c-.2-26.78-20.93-44.69-47.29-46.2Z"/>
  <polygon class="cls-1" points="618.13 272.1 618.25 297.19 505.19 297.19 505.25 62.4 536.05 62.24 536.05 272.11 618.13 272.1"/>
  <path class="cls-1" d="M238.06,296.95l-30.83.32-.02-184.54,30.58-.58.97,27.51c13.4-21.08,33.58-30.97,58.51-30.46l-.11,31.82c-17.41-.69-32.34.78-44.44,11.85-8.68,7.93-14.44,21.98-14.47,34.42l-.2,109.67Z"/>
  <rect class="cls-1" x="332.78" y="112.33" width="30.76" height="184.86"/>
  <g>
    <path class="cls-1" d="M2506.74,576.85l-64.9.44-48.94-88.86-14.06-.22v88.97s-57.42-.04-57.42-.04l-.03-236.54,104.94.3c21.19.06,40.54,8.02,56.7,20.69,16.17,15.86,23.39,36.86,21.74,59.71-2.16,30.03-22.51,54.06-52.28,62.25l54.24,93.29ZM2445.94,415.92c.44-15.01-10.59-26.63-24.84-26.84l-42.26-.64v59.04s41.93-.72,41.93-.72c15.91-.27,26.98-13.83,25.17-30.83Z"/>
    <path class="cls-1" d="M2223.22,340.74l58.06-.18-.96,153.16c-.23,36.86-25.3,66.91-58.64,78.83-26.92,9.63-55.1,9.57-81.75.12-33.87-12.01-53.35-42.35-56.87-78.18l-.19-153.86,57.57.02.6,149.11c.1,23.8,19.2,36.75,40.57,36.7,22.73-.05,41.35-14.15,41.39-38.52l.23-147.21Z"/>
    <path class="cls-2" d="M2533.4,145.91c5.43.21,11.85,3.11,15.1,6.36-38.42,5.87-72.51,14.65-108.03,26.02l-35.37,11.32-72.06,37.46c-31.97,16.62-72.44,44.44-105.28,34.67-10.19,15.05-26.93,26.66-32.55,44.19-5.65,17.64-2.37,38.36-1.37,56.78l2.22,40.79,15.6.8-.35,83.69c-.07,17.6-13.68,26.65-29.59,26.75s-29.14-9.22-29.23-26.81l-.38-84.03,22.21-.2c3.13-36.3-1.79-74.44-12.42-110.31-52.98-8.85-95.42-65.71-115.42-113.15l-30.78-60.73c-17.09-33.72-38.83-63.61-66.86-89.23-8.18-7.48-17.96-10.4-30.45-14.15,4.46-5.26,12.77-12.66,20.3-13.19l42.02-2.95c15.53,1.45,32.76,3.78,46.97,9.96,75.16,32.69,172.07,115.51,160.15,201.42l-6.77,48.78-65.13-108.65c-33.73-48.89-86.42-110.86-141.65-132.43,30.46,18.7,57.14,38.46,81.73,64.62,40.33,42.91,73.45,90.53,100.84,142.73l28.65,54.61c8.8-7.59,13.67-18.1,14.75-29.53s5.61-18.9,11.06-28.35c25.37-43.98,44.51-90.05,63.95-136.91,6.72-16.19,12.76-31.22,24.94-44.7l-14.81,50.14-27.98,84.58c58.56-30.72,123.31-48.9,185.88-41.55,30.17,6.43,59.15,10.01,90.12,11.18ZM2376.46,181.01c5.13-1.64.61-5.29-1.98-2.08-44.68,14-87.9,28.03-127.77,51l129.75-48.93Z"/>
  </g>
</svg>